<?xml version="1.0" encoding="iso-8859-1"?>
<!-- Generator: Adobe Illustrator 19.0.0, SVG Export Plug-In . SVG Version: 6.00 Build 0)  -->
<svg version="1.1" id="Layer_1" xmlns="http://www.w3.org/2000/svg" xmlns:xlink="http://www.w3.org/1999/xlink" x="0px" y="0px"
	 viewBox="0 0 488 488" style="enable-background:new 0 0 488 488;" xml:space="preserve">
<g transform="translate(0 -540.36)">
	<g>
		<g>
			<path d="M213.35,540.36H39.25c-5.5,0-10,4.5-10,10v468c0,5.5,4.5,10,10,10h174.1c5.5,0,10-4.5,10-10v-468
				C223.35,544.86,218.85,540.36,213.35,540.36z M203.35,1008.36H49.25v-448h154.1V1008.36z"/>
			<path d="M80.65,611.46h91.3c5.5,0,10-4.5,10-10s-4.5-10-10-10h-91.3c-5.5,0-10,4.5-10,10S75.15,611.46,80.65,611.46z"/>
			<path d="M80.65,651.86h91.3c5.5,0,10-4.5,10-10s-4.5-10-10-10h-91.3c-5.5,0-10,4.5-10,10S75.15,651.86,80.65,651.86z"/>
			<path d="M80.65,692.96h91.3c5.5,0,10-4.5,10-10s-4.5-10-10-10h-91.3c-5.5,0-10,4.5-10,10S75.15,692.96,80.65,692.96z"/>
			<path d="M167.25,789.76c0-5.5-4.5-10-10-10h-13.1l6.4-10.8c0.9-1.6,1.4-3.4,1.4-5.1c0-3.4-1.7-6.7-4.9-8.6
				c-4.8-2.8-10.9-1.3-13.7,3.5l-6.7,11.4l-6.7-11.4c-2.8-4.7-8.9-6.3-13.7-3.5c-3.1,1.8-4.9,5.2-4.9,8.6c0,1.8,0.5,3.5,1.4,5.1
				l6.4,10.8h-13.1c-5.5,0-10,4.5-10,10s4.5,10,10,10h13l-6.1,9.9c-1,1.6-1.5,3.4-1.5,5.2c0,3.3,1.7,6.6,4.8,8.5
				c4.7,2.9,10.8,1.4,13.7-3.3l6.8-11.2l6.8,11.2c1.8,3.1,5.1,4.8,8.5,4.8c1.8,0,3.6-0.5,5.1-1.5c3.1-1.8,4.8-5.1,4.8-8.5
				c0-1.8-0.5-3.6-1.5-5.2l-6.1-9.9h12.9C162.75,799.76,167.25,795.26,167.25,789.76z"/>
			<path d="M80.65,895.76h91.3c5.5,0,10-4.5,10-10s-4.5-10-10-10h-91.3c-5.5,0-10,4.5-10,10S75.15,895.76,80.65,895.76z"/>
			<path d="M80.65,936.86h91.3c5.5,0,10-4.5,10-10s-4.5-10-10-10h-91.3c-5.5,0-10,4.5-10,10S75.15,936.86,80.65,936.86z"/>
			<path d="M80.65,977.26h91.3c5.5,0,10-4.5,10-10s-4.5-10-10-10h-91.3c-5.5,0-10,4.5-10,10S75.15,977.26,80.65,977.26z"/>
			<path d="M448.75,540.36h-174.1c-5.5,0-10,4.5-10,10v468c0,5.5,4.5,10,10,10h174.1c5.6,0,10-4.5,10-10v-468
				C458.75,544.86,454.25,540.36,448.75,540.36z M438.85,1008.36h-154.1v-448h154.1V1008.36z"/>
			<path d="M316.05,611.46h91.3c5.6,0,10-4.5,10-10s-4.5-10-10-10h-91.3c-5.5,0-10,4.5-10,10S310.55,611.46,316.05,611.46z"/>
			<path d="M316.05,651.86h91.3c5.6,0,10-4.5,10-10s-4.5-10-10-10h-91.3c-5.5,0-10,4.5-10,10S310.55,651.86,316.05,651.86z"/>
			<path d="M316.05,692.96h91.3c5.6,0,10-4.5,10-10s-4.5-10-10-10h-91.3c-5.5,0-10,4.5-10,10S310.55,692.96,316.05,692.96z"/>
			<path d="M402.05,789.76c0-5.5-4.5-10-10-10h-13.1l6.4-10.8c0.9-1.6,1.4-3.4,1.4-5.1c0-3.4-1.7-6.7-4.9-8.6
				c-4.8-2.8-10.9-1.3-13.7,3.5l-6.7,11.4l-6.7-11.4c-2.8-4.7-8.9-6.3-13.7-3.5c-3.1,1.8-4.9,5.2-4.9,8.6c0,1.8,0.5,3.5,1.4,5.1
				l6.4,10.8h-13.1c-5.5,0-10,4.5-10,10s4.5,10,10,10h12.9l-6.1,9.9c-1,1.6-1.5,3.4-1.5,5.2c0,3.3,1.7,6.6,4.8,8.5
				c4.7,2.9,10.8,1.4,13.7-3.3l6.8-11.2l6.8,11.2c1.8,3.1,5.1,4.8,8.5,4.8h0c1.7,0,3.5-0.5,5.2-1.5c3.1-1.8,4.8-5.1,4.8-8.5
				c0-1.8-0.5-3.6-1.5-5.2l-6.1-9.9h12.9C397.55,799.76,402.05,795.26,402.05,789.76z"/>
			<path d="M316.05,895.76h91.3c5.6,0,10-4.5,10-10s-4.5-10-10-10h-91.3c-5.5,0-10,4.5-10,10S310.55,895.76,316.05,895.76z"/>
			<path d="M316.05,936.86h91.3c5.6,0,10-4.5,10-10s-4.5-10-10-10h-91.3c-5.5,0-10,4.5-10,10S310.55,936.86,316.05,936.86z"/>
			<path d="M316.05,977.26h91.3c5.6,0,10-4.5,10-10s-4.5-10-10-10h-91.3c-5.5,0-10,4.5-10,10S310.55,977.26,316.05,977.26z"/>
		</g>
	</g>
</g>
<g>
</g>
<g>
</g>
<g>
</g>
<g>
</g>
<g>
</g>
<g>
</g>
<g>
</g>
<g>
</g>
<g>
</g>
<g>
</g>
<g>
</g>
<g>
</g>
<g>
</g>
<g>
</g>
<g>
</g>
</svg>
