<?xml version="1.0" encoding="iso-8859-1"?>
<!-- Generator: Adobe Illustrator 19.0.0, SVG Export Plug-In . SVG Version: 6.00 Build 0)  -->
<svg version="1.1" id="Capa_1" xmlns="http://www.w3.org/2000/svg" xmlns:xlink="http://www.w3.org/1999/xlink" x="0px" y="0px"
	 viewBox="0 0 463 463" style="enable-background:new 0 0 463 463;" xml:space="preserve">
<g>
	<path d="M271.5,392h-80c-4.142,0-7.5,3.357-7.5,7.5s3.358,7.5,7.5,7.5h80c4.142,0,7.5-3.357,7.5-7.5S275.642,392,271.5,392z"/>
	<path d="M271.5,360h-80c-4.142,0-7.5,3.357-7.5,7.5s3.358,7.5,7.5,7.5h80c4.142,0,7.5-3.357,7.5-7.5S275.642,360,271.5,360z"/>
	<path d="M271.5,72h-80c-4.142,0-7.5,3.357-7.5,7.5s3.358,7.5,7.5,7.5h80c4.142,0,7.5-3.357,7.5-7.5S275.642,72,271.5,72z"/>
	<path d="M271.5,40h-80c-4.142,0-7.5,3.357-7.5,7.5s3.358,7.5,7.5,7.5h80c4.142,0,7.5-3.357,7.5-7.5S275.642,40,271.5,40z"/>
	<path d="M191.5,263c4.142,0,7.5-3.357,7.5-7.5v-32c0-4.143-3.358-7.5-7.5-7.5s-7.5,3.357-7.5,7.5v32
		C184,259.643,187.358,263,191.5,263z"/>
	<path d="M191.5,199c1.97,0,3.91-0.8,5.3-2.2c1.4-1.39,2.2-3.32,2.2-5.3c0-1.98-0.8-3.91-2.2-5.3c-1.39-1.4-3.32-2.2-5.3-2.2
		c-1.97,0-3.91,0.8-5.3,2.2c-1.4,1.39-2.2,3.33-2.2,5.3s0.8,3.91,2.2,5.3C187.59,198.2,189.53,199,191.5,199z"/>
	<path d="M431.5,0h-112c-6.177,0-11.801,2.399-16,6.31c-4.199-3.911-9.823-6.31-16-6.31h-112c-6.177,0-11.801,2.399-16,6.31
		c-4.199-3.911-9.823-6.31-16-6.31h-112C18.542,0,8,10.542,8,23.5v400c0,10.336,6.71,19.128,16,22.266v9.734
		c0,4.143,3.358,7.5,7.5,7.5s7.5-3.357,7.5-7.5V447h97v8.5c0,4.143,3.358,7.5,7.5,7.5s7.5-3.357,7.5-7.5v-9.734
		c3.195-1.079,6.084-2.825,8.5-5.075c2.416,2.25,5.305,3.996,8.5,5.075v9.734c0,4.143,3.358,7.5,7.5,7.5s7.5-3.357,7.5-7.5V447h97
		v8.5c0,4.143,3.358,7.5,7.5,7.5s7.5-3.357,7.5-7.5v-9.734c3.195-1.079,6.084-2.825,8.5-5.075c2.416,2.25,5.305,3.996,8.5,5.075
		v9.734c0,4.143,3.358,7.5,7.5,7.5s7.5-3.357,7.5-7.5V447h97v8.5c0,4.143,3.358,7.5,7.5,7.5s7.5-3.357,7.5-7.5v-9.734
		c9.29-3.138,16-11.93,16-22.266v-400C455,10.542,444.458,0,431.5,0z M143.5,432h-112c-4.687,0-8.5-3.813-8.5-8.5v-400
		c0-4.687,3.813-8.5,8.5-8.5h112c4.687,0,8.5,3.813,8.5,8.5v400C152,428.187,148.187,432,143.5,432z M287.5,432h-112
		c-4.687,0-8.5-3.813-8.5-8.5v-400c0-4.687,3.813-8.5,8.5-8.5h112c4.687,0,8.5,3.813,8.5,8.5v400C296,428.187,292.187,432,287.5,432
		z M440,423.5c0,4.687-3.813,8.5-8.5,8.5h-112c-4.687,0-8.5-3.813-8.5-8.5v-400c0-4.687,3.813-8.5,8.5-8.5h112
		c4.687,0,8.5,3.813,8.5,8.5V423.5z"/>
	<path d="M415.5,392h-80c-4.142,0-7.5,3.357-7.5,7.5s3.358,7.5,7.5,7.5h80c4.142,0,7.5-3.357,7.5-7.5S419.642,392,415.5,392z"/>
	<path d="M415.5,360h-80c-4.142,0-7.5,3.357-7.5,7.5s3.358,7.5,7.5,7.5h80c4.142,0,7.5-3.357,7.5-7.5S419.642,360,415.5,360z"/>
	<path d="M415.5,72h-80c-4.142,0-7.5,3.357-7.5,7.5s3.358,7.5,7.5,7.5h80c4.142,0,7.5-3.357,7.5-7.5S419.642,72,415.5,72z"/>
	<path d="M415.5,40h-80c-4.142,0-7.5,3.357-7.5,7.5s3.358,7.5,7.5,7.5h80c4.142,0,7.5-3.357,7.5-7.5S419.642,40,415.5,40z"/>
	<path d="M335.5,263c4.142,0,7.5-3.357,7.5-7.5v-32c0-4.143-3.358-7.5-7.5-7.5s-7.5,3.357-7.5,7.5v32
		C328,259.643,331.358,263,335.5,263z"/>
	<path d="M335.5,199c1.97,0,3.9-0.8,5.3-2.2c1.4-1.39,2.2-3.33,2.2-5.3s-0.8-3.91-2.2-5.3c-1.39-1.4-3.33-2.2-5.3-2.2
		c-1.97,0-3.91,0.8-5.3,2.2c-1.4,1.39-2.2,3.319-2.2,5.3c0,1.979,0.8,3.91,2.2,5.3C331.59,198.2,333.53,199,335.5,199z"/>
	<path d="M127.5,392h-80c-4.142,0-7.5,3.357-7.5,7.5s3.358,7.5,7.5,7.5h80c4.142,0,7.5-3.357,7.5-7.5S131.642,392,127.5,392z"/>
	<path d="M127.5,360h-80c-4.142,0-7.5,3.357-7.5,7.5s3.358,7.5,7.5,7.5h80c4.142,0,7.5-3.357,7.5-7.5S131.642,360,127.5,360z"/>
	<path d="M127.5,72h-80c-4.142,0-7.5,3.357-7.5,7.5s3.358,7.5,7.5,7.5h80c4.142,0,7.5-3.357,7.5-7.5S131.642,72,127.5,72z"/>
	<path d="M127.5,40h-80c-4.142,0-7.5,3.357-7.5,7.5s3.358,7.5,7.5,7.5h80c4.142,0,7.5-3.357,7.5-7.5S131.642,40,127.5,40z"/>
	<path d="M47.5,263c4.142,0,7.5-3.357,7.5-7.5v-32c0-4.143-3.358-7.5-7.5-7.5s-7.5,3.357-7.5,7.5v32C40,259.643,43.358,263,47.5,263
		z"/>
	<path d="M47.5,199c1.97,0,3.9-0.8,5.3-2.2c1.4-1.39,2.2-3.33,2.2-5.3s-0.8-3.91-2.2-5.3c-1.39-1.4-3.33-2.2-5.3-2.2
		c-1.97,0-3.91,0.8-5.3,2.2c-1.4,1.39-2.2,3.33-2.2,5.3s0.8,3.91,2.2,5.3C43.6,198.2,45.53,199,47.5,199z"/>
</g>
<g>
</g>
<g>
</g>
<g>
</g>
<g>
</g>
<g>
</g>
<g>
</g>
<g>
</g>
<g>
</g>
<g>
</g>
<g>
</g>
<g>
</g>
<g>
</g>
<g>
</g>
<g>
</g>
<g>
</g>
</svg>
