<?xml version="1.0" encoding="iso-8859-1"?>
<!-- Generator: Adobe Illustrator 17.1.0, SVG Export Plug-In . SVG Version: 6.00 Build 0)  -->
<!DOCTYPE svg PUBLIC "-//W3C//DTD SVG 1.1//EN" "http://www.w3.org/Graphics/SVG/1.1/DTD/svg11.dtd">
<svg version="1.1" id="Capa_1" xmlns="http://www.w3.org/2000/svg" xmlns:xlink="http://www.w3.org/1999/xlink" x="0px" y="0px"
	 viewBox="0 0 219.75 219.75" style="enable-background:new 0 0 219.75 219.75;" xml:space="preserve">
<path d="M196.904,0H66.035c-2.762,0-5,2.238-5,5v64.662c-0.719-0.115-1.448-0.194-2.192-0.194c-3.055,0-6.062,1.041-8.466,2.931
	l-11.533,9.064c-0.638-0.064-1.282-0.102-1.933-0.102c-4.247,0-8.43,1.448-11.775,4.078c-4.005,3.147-6.545,7.667-7.151,12.725
	s0.794,10.05,3.941,14.055c3.64,4.631,9.108,7.287,15.004,7.287c4.248,0,8.431-1.448,11.776-4.078
	c4.044-3.179,6.443-7.68,7.089-12.415l5.24-4.118V214.75c0,2.762,2.238,5,5,5h130.869c2.762,0,5-2.238,5-5V5
	C201.904,2.238,199.666,0,196.904,0z M61.035,86.174l-7.127,5.602c-0.553-1.085-1.213-2.134-1.993-3.127
	c-0.783-0.996-1.655-1.895-2.593-2.701l7.235-5.686c0.834-0.655,1.704-0.793,2.286-0.793c0.806,0,1.563,0.267,2.192,0.73V86.174z
	 M189.137,163.478h-10v-18h10V163.478z M189.137,135.478h-10V84.273h10V135.478z M189.137,74.273h-10v-18h10V74.273z
	 M189.137,46.273h-10V23.484H83.804v172.782h95.333v-22.789h10v27.789c0,2.762-2.238,5-5,5H78.804c-2.762,0-5-2.238-5-5V18.484
	c0-2.762,2.238-5,5-5h105.333c2.762,0,5,2.238,5,5V46.273z M108.839,139.829l-3.117-5.803c-0.64-1.191,0.364-2.598,1.698-2.381
	l6.502,1.055c0.53,0.086,1.068-0.094,1.439-0.482l4.556-4.758c0.935-0.976,2.583-0.457,2.79,0.879l1.005,6.51
	c0.082,0.531,0.42,0.987,0.903,1.22l5.933,2.862c1.217,0.587,1.233,2.316,0.026,2.925l-5.881,2.968
	c-0.479,0.242-0.809,0.704-0.881,1.236l-0.889,6.527c-0.183,1.339-1.822,1.888-2.774,0.929l-4.64-4.676
	c-0.378-0.381-0.919-0.552-1.448-0.456l-6.482,1.172c-1.33,0.24-2.359-1.149-1.74-2.351l3.013-5.858
	C109.098,140.869,109.093,140.302,108.839,139.829z M108.207,101.011c-2.762,0-5-2.238-5-5s2.238-5,5-5h46.526c2.762,0,5,2.238,5,5
	s-2.238,5-5,5H108.207z M154.733,79.468h-46.526c-2.762,0-5-2.238-5-5s2.238-5,5-5h46.526c2.762,0,5,2.238,5,5
	S157.495,79.468,154.733,79.468z M154.733,57.925h-46.526c-2.762,0-5-2.238-5-5s2.238-5,5-5h46.526c2.762,0,5,2.238,5,5
	S157.495,57.925,154.733,57.925z"/>
<g>
</g>
<g>
</g>
<g>
</g>
<g>
</g>
<g>
</g>
<g>
</g>
<g>
</g>
<g>
</g>
<g>
</g>
<g>
</g>
<g>
</g>
<g>
</g>
<g>
</g>
<g>
</g>
<g>
</g>
</svg>
